<svg version="1.2" xmlns="http://www.w3.org/2000/svg" viewBox="0 0 560 280" width="560" height="280">
	<title>pro</title>
	<style>
		.s0 { fill: #30af4a } 
		.s1 { fill: #000000 } 
	</style>
	<g id="Group 1">
		<path id="Shape 1" fill-rule="evenodd" class="s0" d="m219 207.2l-6.6-10-2.7 10h-4.2l5.9-22.1h4.2l-3 11.2 11.8-11.2h5.2l-12.2 11.5 7.2 10.6zm74.4-10.4c0.7 0 1.2-0.1 1.7-0.3 0.5-0.2 1-0.5 1.4-0.9q0.6-0.5 1-1.2 0.4-0.7 0.6-1.4 0.2-0.8 0.1-1.5-0.1-0.8-0.4-1.4c-0.3-0.3-0.6-0.6-1-0.9q-0.7-0.3-1.7-0.3h-5.2l-2.1 7.9zm3.2-11.7q1.6 0 2.9 0.6c0.8 0.5 1.5 1 2 1.7 0.5 0.7 0.9 1.6 1 2.5 0.2 1 0.1 2-0.2 3.1q-0.4 1.6-1.4 3-0.8 1.4-2.2 2.4c-0.9 0.7-1.9 1.3-3.1 1.7q-1.7 0.5-3.9 0.5h-4.9l-1.7 6.6h-4.3l5.9-22.1zm-110.8 0h19.9l-6 22.1h-19.8l1-3.8h15.6l3.9-14.5h-15.6zm0.2 13l5.8-4 3.6 4zm143.2-9.3h-15.7l-3.9 14.5h15.7l-1.1 3.8h-19.8l5.9-22h19.9zm-15.7 9.3l5.8-4 3.6 4zm-76.5 0.4c-0.1 0.4-0.2 0.9-0.3 1.5q0 0.8 0.2 1.5c0.1 0.5 0.4 0.9 0.8 1.3q0.6 0.4 1.5 0.5h12.1l-1 3.8h-12.1c-1.1-0.1-2-0.2-2.7-0.6-1-0.4-1.6-1-2.2-1.7-0.5-0.8-0.8-1.7-0.9-2.8-0.1-1 0-2.2 0.4-3.5l1.3-4.8q0.5-2 1.5-3.6 1-1.6 2.4-2.7 1.4-1.1 3-1.7 1.5-0.6 3.1-0.7h12.1l-1 3.9h-12.1c-0.7 0-1.3 0.2-1.8 0.5-0.6 0.3-1.1 0.7-1.5 1.3-0.4 0.5-0.7 1-1 1.5q-0.4 0.8-0.5 1.5l-0.4 1.4zm125.3 0c-0.1 0.5-0.2 0.9-0.3 1.5q0 0.8 0.2 1.5c0.2 0.6 0.4 1 0.8 1.3q0.5 0.4 1.5 0.5h12.1l-1 3.9h-12.1c-1.1-0.1-2-0.3-2.7-0.7q-1.4-0.6-2.2-1.7c-0.4-0.8-0.8-1.7-0.9-2.7q-0.1-1.6 0.4-3.6l1.3-4.8c0.3-1.3 0.8-2.5 1.5-3.5q1.1-1.6 2.4-2.8 1.4-1.1 3-1.7 1.5-0.5 3.1-0.6h12.1l-1.1 3.8h-12q-1 0.1-1.8 0.5c-0.6 0.4-1.1 0.8-1.5 1.3-0.4 0.5-0.8 1-1 1.6q-0.3 0.7-0.5 1.4l-0.4 1.5zm-25.7 0c-0.1 0.4-0.2 0.9-0.2 1.4q-0.1 0.8 0.1 1.6c0.1 0.5 0.4 0.9 0.8 1.3 0.4 0.2 0.9 0.4 1.6 0.5h12l-1 3.8h-12.1c-1-0.1-2-0.3-2.7-0.6q-1.3-0.6-2.1-1.7c-0.5-0.8-0.8-1.7-1-2.8q-0.1-1.6 0.4-3.5l1.3-4.8c0.3-1.3 0.9-2.5 1.5-3.6q1.1-1.6 2.4-2.7 1.4-1.2 3.1-1.8 1.4-0.5 3-0.6h12.1l-1 3.9h-12.1q-1 0-1.7 0.5c-0.6 0.3-1.2 0.7-1.6 1.2-0.4 0.5-0.7 1.1-0.9 1.6q-0.4 0.8-0.6 1.5l-0.4 1.4zm-71.4-9.7l-4.9 18.3h-4.2l4.9-18.3 1-3.7h18.9l-1 3.7-4.9 18.3h-4.2l4.9-18.3zm-215.7 8.9c-0.9 0-1.6-0.7-1.6-1.6 0-0.9 0.7-1.7 1.6-1.7h119.7c0.9 0 1.6 0.8 1.6 1.7 0 0.9-0.7 1.6-1.6 1.6zm342.6 0c-0.9 0-1.7-0.7-1.7-1.6 0-0.9 0.8-1.7 1.7-1.7h119.7c0.8 0 1.6 0.8 1.6 1.7 0 0.9-0.8 1.6-1.6 1.6zm-119.6-154.3l3.1-14.8c23.1 0 45.3 0 68.5 0-4.9 8.9-14.5 14.8-23.8 14.8zm-17 0c-1.7 0-3.3 1.4-3.6 3.1l-0.8 4.6c-0.3 1.7 0.8 3.2 2.4 3.2h60.9c-4.8 9-14.4 15.1-23.9 15.1h-54.2c-4.7 0-7.8-3.9-6.7-8.6l5.2-23.6c1-4.3 5.1-8 9.4-8.5l0.2-0.8c2.1-10.2 9.6-25.2 32.1-25.2h53.8v0.1c0.4 0 0.8-0.1 1.3-0.1h39.9c-4.9 8.9-14.4 14.8-23.8 14.8h-71.3c-11.4 0.1-13.6 10.5-13.6 10.5q-1.6 7.7-3.2 15.4zm0 58.3v67.9h-18.7v-26h-50.2v26h-18.6l-0.1-52 18.7-15.9-0.1 26.8h50.3v-26.8zm295.7 0v67.9h-18.6l-0.1-26h-50.1v26h-18.7l-0.1-52 18.8-15.9-0.1 26.8h50.2l0.1-26.8zm-515.2 45.3q4.1 3.3 10.2 3.5h58.3c-3.8 11.4-14.5 19.1-26.5 19.1h-37.7c-9.6 0-17.2-2.8-23.1-8.6-5.8-5.7-8.6-12.2-8.6-19.6v-23.1-1.4c0-13 5.7-32.1 34.3-32.1h15.6v0.1c0.5 0 1-0.1 1.5-0.1h50.8c-3.8 11.3-14.4 18.8-26.4 18.9h6.2c5.6-0.1 11-1.7 15.5-4.8l25.7 29.7 25.8-29.7h26l-42.1 46.2v24.5h-19.4v-24.5l-37.7-41.4h-37.8c-14.4 0.1-14.6 13.3-14.6 13.3v20.8c0 3.8 1.4 6.9 4 9.2zm295.8 0c2.7 2.2 6.1 3.4 10.2 3.5h58.2c-3.7 11.4-14.4 19.1-26.4 19.1h-37.7c-9.6 0-17.3-2.8-23.2-8.6-5.7-5.7-8.6-12.2-8.6-19.6v-24.5c0-13 5.8-32.1 34.4-32.1h15.5v0.1c0.6 0 1.1-0.1 1.6-0.1h50.8c-3.8 11.3-14.5 18.8-26.4 18.9h6.1c5.7-0.1 11.1-1.7 15.6-4.8l25.6 29.7 25.9-29.7h26l-42.1 46.2v24.5h-19.5v-24.5l-37.7-41.4h-37.8c-14.3 0.1-14.5 13.3-14.5 13.3v20.8c0 3.8 1.4 6.9 4 9.2z"/>
		<path id="Ellipse 1 copy 2" fill-rule="evenodd" class="s1" d="m77.8 219.5c1.4 0.7 3.5 2 4.2 2.5l0.4 0.2 0.4-0.1c7-1.2 14.2-2.9 21.2-3.9 3.5-0.6 6.8 0.4 9.3 2.9 0.6 0.6 2 2.5 2.4 3.8-6.4-2.3-24.7 0.4-31.2 1.4h-0.5l-0.3 0.4c-5.9 9.8-12 22.7-11.9 34.4-1.7-0.2-3.5-1.1-4.9-1.9-1-0.7-3-2.3-3-3.6 0.1-0.6 1-2.5 1.3-3.1 0.9-2.2 1.9-4.3 2.8-6.5 2.5-5.4 5-11 7.1-16.7l0.5-1.6-1.6 0.3c-2.4 0.4-5 0.9-7.4 1.3-2.7 0.4-5.6 0.1-7.8-1.7-0.8-0.7-2.1-2.1-2.2-3.1-0.1-0.5 0.1-1.2 0.4-1.7 5.2 2.2 14.4 1 19.5 0.3l0.6-0.1 0.2-0.6c0.2-0.9 0.4-1.9 0.5-2.9zm348.3 20.7l0.7-1.1c0.4-0.6 0.7-1.3 1.1-1.9 0.2-0.4 0.6-1.2 0.9-2 1.6 0.7 4.7 2.6 4.9 3.3-0.8 1.8-1.8 3.6-2.6 5.5-1.4 2.9-2.5 6-3.2 9.1l-0.7 3.2 2.4-2.3c3.7-3.8 7.4-8.5 10.6-12.7l0.1-0.1v-0.2c0.5-1.4 1.5-3.8 1.8-5.7 1.5 0.5 3.6 2 4.2 2.9-0.2 0.6-0.5 1.2-0.6 1.6-0.5 1.3-1 2.6-1.5 3.9l-0.5 1.3h7.3l0.2-0.7c0.6-2.1 1.3-4.3 1.9-6.4 0.2-0.8 0.6-1.9 0.8-2.9 1.6 0.9 4.3 3 4.5 3.8 0 1.1-1.4 4.6-1.8 5.8-1.1 3.1-2.2 6.2-3 9.3l-1.2 4 2.8-3.1c2.2-2.3 4.3-5.4 6.1-7.9q1.9-2.8 3.8-5.5c0.1 0.4 0.1 0.9 0.1 1.2q-2.7 3.9-5.5 7.7-2 2.8-4.1 5.6c-0.4 0.6-1.5 2-2.2 2.7-1.1-0.5-4.9-3.1-5.4-4 0-0.6 0.5-2 0.6-2.5 0.6-1.8 1.2-3.5 1.8-5.2l0.3-1.4-7.1 0.1-0.2 0.7c-0.9 2.2-2.6 6.9-3 9.9-1.6-0.8-4.1-2.4-4.5-3.2 0.1-0.6 0.7-2.2 0.9-2.7l2.1-5.9-3.8 5c-1 1.2-5.3 6.8-6.6 7.7-0.3-0.1-0.8-0.4-1-0.5l-0.1-0.1c-1-0.5-5-3-5-4.2 0-0.1 0-3.8 0-4l-1.9 3.1c-0.4 0.6-1.7 3-2.4 3.7-0.1-0.1-0.1-0.1-0.2-0.1v-0.1h-0.1c-1.4-0.5-8-3.7-8-5.3 0-2.8 1.5-6.5 2.8-9 0.4-1 2.8-5 3.8-5.3 1.9 0 5.5 1.4 7.6 2.8q-0.3 0-0.6 0c-4 0-7.9 10.6-8.4 13.9v0.3c0.1 0.8 0.7 1.4 1.6 1.2 0.4-0.2 0.8-0.5 1.2-0.9 0.8-0.9 1.7-2.1 2.4-3.2 2.1-2.9 4-6.1 5.9-9.2zm-24.4-0.6l0.7-1.2q1.1-1.8 2.1-3.6c1.5 0.6 4.8 2.6 5 3.3-0.8 1.8-1.4 4-2.1 5.9-1.3 3.8-2.6 7.7-4 11.5l-0.6 1.5 1.6-0.2c0.9-0.1 1.8-0.1 2.8-0.1 4.3 0 6.4 3.7 6.4 7.6 0 0.5-0.9 1.8-1.7 2.6-0.9-4.3-5.9-5.9-10-5.9h-0.7l-0.3 0.6c-0.9 2.3-6.6 16.1-9.3 16.1-5.8 0-8.4-3.9-8.4-9.3 0-2.5 2-4.6 3.8-5.9 3-2.4 6.8-3.8 10.4-4.7l0.6-0.1 0.1-0.5c1.7-4.5 3.3-9 4.7-13.6l0.2-0.8-1.6-0.7-0.5 0.7c-0.9 1.7-5.6 10.5-7 11.9-0.1 0-0.2-0.1-0.2-0.1h-0.1l-0.1-0.1c-1.3-0.5-8-3.7-8-5.3 0-2.8 1.5-6.5 2.8-9 0.5-0.9 2.8-5 3.9-5.3 1.9 0 5.6 1.5 7.6 2.9q-0.3-0.1-0.6 0c-4 0-7.9 10.6-8.4 13.9v0.2c0 0.8 0.7 1.4 1.5 1.1 0.5-0.1 0.9-0.5 1.2-0.7 0.8-1 1.6-2.2 2.3-3.2 2.1-3.1 4-6.3 5.9-9.5zm-12.9 35.7c1.4 0 2.7-2.7 3.2-3.8 1.4-2.6 2.6-5.4 3.7-8.2l0.8-1.9-2 0.6c-3.4 1.1-7.7 3.6-7.7 7.6 0 1.2-0.1 5.7 2 5.7zm-23.1-43.6c1.9 0.5 4.8 2.7 4.9 4l0.2 2.4 1.6-1.8c0.8-1 2.2-2.2 3.7-2.2 2.7 0 8 3.5 8 6.6 0 2.3-1.8 7-2.8 9.2-0.6 1.3-3.1 6.4-4.9 6.4-1.9 0-3.8-0.7-5.5-1.7-0.2-0.1-0.7-0.5-1.2-0.8 3.3 0 5.5-5 6.6-7.5 0.7-2 2.2-6.6 2.2-8.7 0-1.2-0.5-2.2-1.7-2.2-6.9 0-12.2 20-13.5 25.7v0.3l0.1 0.2c0.4 1.1 0.6 2.2 0.6 3.4 0 0.6-1.2 2.1-1.7 2.6l-0.3 0.2v0.3c-0.1 0.9-0.2 1.6-0.2 2.5 0 0.2 0 0.5 0 0.7-1.5-0.6-4.8-3.3-5.5-4.2 0.1-1.2 0.4-2.6 0.7-3.7l0.2-0.9-0.9-0.3c-1.4-0.3-2.8-0.5-4.1-0.5h-0.6l-0.3 0.6c-1 2.3-6.6 16-9.4 16-5.8 0-8.3-3.8-8.3-9.3 0-2.3 2-4.5 3.7-5.9 3-2.2 6.9-3.8 10.5-4.6l0.5-0.2 0.2-0.4c1.9-5.2 3.8-10.5 5.3-15.8l1.8-6.2c1.6 0.8 3.9 2.2 4.2 3-0.2 0.5-0.5 1.3-0.6 1.8-0.5 1.4-1 2.7-1.4 4-1.3 3.8-2.7 7.6-4.1 11.4l-0.5 1.5 1.5-0.1c0.9-0.1 1.9-0.1 2.9-0.1h0.9l0.2-0.7c1.5-5.5 3.1-10.9 4.6-16.3q1-3.2 1.8-6.4c0.2-0.5 0.5-1.5 0.6-2.3zm-18.9 30.4l-2 0.6c-3.3 1.1-7.6 3.6-7.6 7.5 0 1.3-0.1 5.8 1.9 5.8 1.4 0 2.8-2.8 3.2-3.8 1.4-2.6 2.6-5.4 3.7-8.1zm5.2-20.9c-1.3 2.2-8.6 13.5-10.6 15q0 0-0.1 0c-1.4-0.5-6.1-4-6.4-5 0-2.7 2.1-6.7 3.5-9.1 0.8-1.5 2.8-4.9 3.5-7.1 1.6 0.8 4.8 3.1 4.9 4-0.1 0.5-2 3.7-2.3 4.4-1.6 2.7-2.9 5.5-3.7 8.5l-0.6 2.7 2.2-1.7c2.3-1.7 5.8-7.2 7.5-9.6 1.7-2.6 3.4-5.2 5-7.8 0.2 0.1 0.3 0.1 0.6 0.3zm-14.6-22.5c0.7 0.8 1.4 1.9 1.7 2.4 0.7 1.2 1.7 3.2 1.2 4.7-4.2 6-9.3 12-14.1 17.6l-0.5 0.5 0.3 0.5c2.3 4.6 5.9 11.3 10.1 14.5 0 0 0 0 0.1 0.1-0.8 1.1-6.4 2.2-7.5 1.4-1-1-5-9.8-5.8-11.4l-0.7-1.3-0.9 1.1c-1.8 1.8-12.8 13.6-15 13.7-4 0-7.4-6-5.5-9.2 0.7 1.3 1.5 3.2 3.4 2.4 3.8-1.7 11.8-9.7 14.9-12.9l0.5-0.5-0.3-0.6c-2.2-4.5-7.5-15.2-11.4-18.7 0.9-0.4 2.6-0.8 3.2-0.9 1.4-0.2 3.5-0.2 4.6 0.6 1.2 0.9 6.1 12.6 6.9 14.4l0.6 1.5 1.1-1.2c2.4-2.6 12.1-13.2 13.1-18.7zm-81.2 20.1c2.2 0.4 3.1 1.8 3.4 4 0 0.8-0.7 2.5-1 3.3l-0.9 1.9 2.1-0.6c0.6-0.2 1.1-0.5 1.7-0.7h0.1q1.1-0.6 2.1-1.3l0.3-0.2v-0.3c1.3-5.8 6.8-12.5 13.1-12.5 1.1 0 2.4 0.2 3.4 0.8l0.2 0.1h0.3c1 0 1.8 0.5 2.2 1.5 0.6 1.1 0.1 2.9-0.3 4.1-0.2 0.7-1.1 2.5-1.7 2.9q-0.2 0.2-0.7 0.4c0.8-1.7 1.4-3.6 1.6-5.2v-0.6l-0.4-0.3c-0.5-0.5-1.1-0.8-1.8-0.8-3 0-5.8 1.4-7.7 3.7-2.3 2.8-3.3 6.4-3.3 10 0 1.6 0.4 3.4 1.4 4.7 0.7 0.9 1.8 1.7 3 1.7 3.9 0 7.7-4.6 9.9-7.5 1.2-1.7 2.3-3.4 3.4-5.1 0.3-0.7 0.8-1.5 1.2-2.2 0.3 0.1 0.5 0.3 0.6 0.5 0 0 0 0.1-0.1 0.1-2 3.2-8.7 15-12.9 15-5.1 0-11.8-1.1-11.8-7.7q0-0.2 0-0.6l0.1-1.6-1.5 0.7c-0.1 0.1-0.3 0.2-0.4 0.2q-1.9 0.9-4 1.2h-0.5l-0.2 0.4c-1.8 3.1-5.5 7.9-9.4 7.9-2.4 0-7.5-4.4-7.8-6.7 0-0.7 0-1.4 0-2.1l0.1-1.7-1.6 0.7c-0.1 0.2-0.3 0.2-0.5 0.3q-1.9 0.9-3.9 1.2h-0.5l-0.3 0.4c-1.8 3.1-5.5 7.9-9.4 7.9-2.4 0-7.5-4.4-7.8-6.7-0.4-3.6 0.8-7.5 2.7-10.6 1.1-1.9 3.6-4.9 6.1-4.9 1.5 0 5.7 2.9 6.9 4-0.4-0.3-0.8-0.4-1.4-0.5l-0.3-0.1-0.3 0.2q-1.6 1-2.9 2.4l-0.1 0.1v0.2c-0.2 0.4-0.2 0.8-0.2 1.2v0.2c0.2 1.8 1.8 3.9 3.4 4.8l1 0.6 0.4-1c0.7-1.4 1.9-4.2 1.8-5.8-0.1-0.9-0.5-1.5-1-2h0.1c2.3 0.4 3.2 1.8 3.5 4 0 0.8-0.7 2.5-1 3.3l-0.9 1.9 2-0.6c0.7-0.2 1.2-0.5 1.9-0.7 0.8-0.4 1.6-1 2.4-1.5l0.2-0.2 0.1-0.4c0.8-3.3 4.3-10.1 8.3-10.1 1.5 0 5.7 2.9 6.9 4-0.3-0.3-0.8-0.4-1.3-0.5l-0.4-0.1-0.3 0.2c-1.1 0.6-2 1.5-2.8 2.4l-0.2 0.1v0.2q-0.2 0.6-0.2 1.2v0.1l0.1 0.1c0.1 1.8 1.8 3.9 3.4 4.8l0.9 0.6 0.5-1c0.6-1.4 1.8-4.2 1.7-5.8q-0.2-1.3-1-2zm-11 14.7c0.1 1 0.4 2.4 1.6 2.4 3 0 5.9-4.7 7.2-7l0.5-0.9-0.9-0.4c-0.8-0.5-1.6-1.3-2.2-1.9-0.5-0.7-0.9-1.3-1.2-2.1l-0.8-1.8-1 1.6c-1.8 2.8-3.5 6.7-3.2 10.1zm-23.8 0c0 1 0.3 2.4 1.6 2.4 2.9 0 5.9-4.7 7.1-7l0.5-0.9-0.9-0.4c-0.8-0.5-1.6-1.3-2.2-1.9-0.5-0.7-1-1.3-1.2-2.1l-0.7-1.8-1.1 1.6c-1.9 2.8-3.5 6.7-3.1 10.1zm-35.7 9.2c0.2-0.1 0.4-0.3 0.7-0.5 0.7-0.7 1.4-1.5 2.1-2.2l1.6-1.8 0.3-0.3 0.5-0.5c4.8-5.4 9.2-11.2 12.9-17.3 1.2-2 2.5-4.2 3.5-6.4 0.8 0.5 1.8 1.9 2.2 2.3l0.1 0.2 0.1 0.1c0.8 0.5 3.8 2.5 4.1 3.4-0.1 0.8-0.4 2.4-0.7 3.3-0.4 1.9-0.9 3.8-1.4 5.7-0.5 1.9-1 3.9-1.4 5.9-0.2 0.8-0.5 1.9-0.6 2.9-1-0.2-2-0.8-2.6-1.3-0.4-0.4-1.7-1.6-1.6-2.1 0.7-3.6 1.6-7.3 2.6-10.8l0.2-0.8-1.6-0.7-0.5 0.8c-2.7 4.7-5.8 9.3-8.9 13.7-2.1 2.8-5.1 6.9-7.7 9.3-0.8 0-2.8-1.7-3.9-2.9zm3.2-5.2c-1.1-0.3-2.2-1-3-1.8-0.2-0.3-1.1-1.2-1.1-1.6 0.8-3.6 1.7-7.3 2.6-10.8l0.3-0.8-1.6-0.7-0.5 0.8c-2.7 4.7-5.8 9.3-9 13.7-2.1 2.8-5.1 6.9-7.6 9.3-0.9 0-2.8-1.6-4-2.9 0.3-0.1 0.5-0.3 0.8-0.5 6.1-6.2 11.7-13.1 16.3-20.5 1.6-2.5 3.3-5.3 4.6-8 0.7 0.5 1.8 1.9 2.2 2.3l0.1 0.2 0.1 0.1c0.8 0.5 3.8 2.5 4 3.4 0 1.5-1.1 5.5-1.6 7.2-0.8 3.1-1.7 6.4-2.3 9.6l-0.2 1zm-21.8-18.7c2.2 0.5 3.1 1.9 3.4 4 0 0.8-0.7 2.5-1 3.3l-0.9 2 2-0.6c0.7-0.2 1.2-0.5 1.8-0.7h0.1c2.3-1.2 4.5-3.3 6-5.6 0.1 0.7 0 1.4-0.4 2-1.3 1.7-3.5 3.1-5.4 4.1-1.3 0.5-2.6 1-4 1.1l-0.5 0.1-0.2 0.4c-1.8 3.1-5.5 7.8-9.5 7.8-2.3 0-7.5-4.3-7.7-6.7-0.1-0.6-0.1-1.3 0-2.1l0.1-1.7-1.6 0.8c-0.1 0.1-0.4 0.2-0.5 0.3-1.2 0.6-2.6 1-4 1.1l-0.5 0.1-0.2 0.4c-1.9 3.1-5.6 7.8-9.4 7.8-2.4 0-7.5-4.3-7.8-6.7 0-0.3-0.1-0.7-0.1-1.2v-3.1l-1.8 2.6c-1.5 2.2-5.4 8-8.3 8-5.2 0-11.8-1.2-11.8-7.8q0-0.2 0-0.5v-1.7l-1.5 0.8c-0.1 0.1-0.2 0.1-0.4 0.2-1.2 0.6-2.5 1-3.9 1.1l-0.5 0.1-0.2 0.4c-1.9 3.1-5.6 7.8-9.5 7.8-2.3 0-7.5-4.3-7.8-6.7-0.3-3.5 0.9-7.5 2.7-10.5 1.2-1.9 3.6-4.9 6.1-4.9 1.5 0 5.8 2.9 7 4-0.4-0.3-0.9-0.5-1.4-0.6h-0.3l-0.4 0.1q-1.5 1-2.8 2.5l-0.2 0.1v0.2c-0.1 0.4-0.1 0.8-0.1 1.2v0.1c0.2 1.9 1.8 3.9 3.4 4.9l0.9 0.5 0.5-1c0.6-1.4 1.9-4.1 1.7-5.7q-0.2-1.3-1-2.1h0.2c2.2 0.5 3.2 1.9 3.4 4 0 0.8-0.6 2.5-1 3.3l-0.8 2 2-0.6c0.6-0.2 1.2-0.5 1.8-0.7 0.8-0.4 1.5-0.8 2.1-1.3l0.3-0.3 0.1-0.3c1.3-5.7 6.7-12.4 13-12.4 1.1 0 2.5 0.2 3.4 0.7l0.3 0.2h0.2c1 0 1.8 0.5 2.2 1.4 0.6 1.2 0.2 3-0.2 4.2-0.2 0.6-1.1 2.5-1.7 2.9q-0.3 0.1-0.8 0.3c0.8-1.6 1.4-3.5 1.6-5.2v-0.5l-0.3-0.4c-0.6-0.4-1.1-0.7-1.9-0.7-3 0-5.7 1.4-7.6 3.7-2.4 2.7-3.4 6.4-3.4 9.9 0 1.7 0.4 3.4 1.4 4.7 0.8 0.9 1.9 1.8 3 1.8 5.6 0 11.2-9.2 13.8-13.5v-0.1c1.1-2.6 4.1-7.3 7.3-7.3 1.5 0 5.8 2.9 7 4-0.4-0.3-0.8-0.5-1.4-0.6h-0.4l-0.2 0.1c-1.1 0.7-2 1.5-2.9 2.5l-0.1 0.1-0.1 0.2q-0.1 0.5-0.1 1.2v0.1c0.2 1.9 1.8 3.9 3.4 4.9l1 0.5 0.4-1c0.7-1.4 1.9-4.1 1.7-5.7q-0.1-1.3-1-2.1h0.2c2.3 0.5 3.2 1.9 3.4 4 0.1 0.8-0.6 2.5-1 3.3l-0.8 2 2-0.6c0.6-0.2 1.2-0.5 1.8-0.7h0.1c0.8-0.5 1.6-1 2.3-1.6l0.3-0.2 0.1-0.3c0.8-3.3 4.2-10.1 8.3-10.1 1.5 0 5.7 2.9 6.9 4-0.4-0.3-0.8-0.5-1.4-0.6h-0.3l-0.4 0.1q-1.5 1-2.8 2.5l-0.1 0.1v0.2c-0.2 0.4-0.2 0.8-0.2 1.2v0.1c0.2 1.9 1.8 3.9 3.4 4.9l1 0.5 0.5-1c0.6-1.4 1.8-4.1 1.7-5.7q-0.2-1.3-1-2.1zm-11 14.8c0 1 0.4 2.3 1.6 2.3 3 0 5.9-4.6 7.2-6.9l0.5-0.9-0.9-0.5c-0.9-0.4-1.6-1.2-2.2-1.9-0.5-0.6-1-1.3-1.2-2.1l-0.8-1.7-1 1.6c-1.9 2.8-3.5 6.6-3.2 10.1zm-23.9 0c0.1 1 0.4 2.3 1.6 2.3 3 0 5.9-4.6 7.2-6.9l0.5-0.9-0.9-0.5c-0.8-0.4-1.6-1.2-2.2-1.9-0.5-0.6-1-1.3-1.3-2.1l-0.7-1.7-1 1.6c-1.9 2.8-3.5 6.6-3.2 10.1zm-45.7 0c0 1 0.4 2.3 1.6 2.3 3 0 5.9-4.6 7.1-6.9l0.5-0.9-0.8-0.5c-0.9-0.4-1.6-1.2-2.2-1.9-0.5-0.6-1-1.3-1.3-2.1l-0.7-1.7-1 1.6c-1.9 2.8-3.6 6.6-3.2 10.1zm387.8-1c1.6 0 2.9 1.2 2.9 2.6 0 1.4-1.3 2.6-2.9 2.6-1.6 0-2.9-1.2-2.9-2.6 0-1.4 1.3-2.6 2.9-2.6zm12.3 0c1.6 0 2.9 1.2 2.9 2.6 0 1.4-1.3 2.6-2.9 2.6-1.6 0-2.9-1.2-2.9-2.6 0-1.4 1.3-2.6 2.9-2.6zm12.3 0c1.6 0 2.9 1.2 2.9 2.6 0 1.4-1.3 2.6-2.9 2.6-1.6 0-2.9-1.2-2.9-2.6 0-1.4 1.3-2.6 2.9-2.6z"/>
	</g>
</svg>