<svg version="1.2" xmlns="http://www.w3.org/2000/svg" viewBox="0 0 600 250" width="600" height="250">
	<title>pro-svg</title>
	<style>
		.s0 { fill: #30af4a } 
	</style>
	<g id="Group 1">
		<path id="Shape 1" fill-rule="evenodd" class="s0" d="m239 227.2l-6.6-10-2.7 10h-4.2l5.9-22.1h4.2l-3 11.2 11.8-11.2h5.2l-12.2 11.5 7.2 10.6zm67.7-22.1l-5.9 22.1h4.3l1.7-6.6h4.9q2.2 0 3.9-0.5c1.2-0.4 2.2-1 3.1-1.7q1.4-1 2.2-2.4 1-1.4 1.4-3c0.3-1.1 0.4-2.1 0.2-3.1-0.1-0.9-0.5-1.8-1-2.5-0.5-0.7-1.2-1.2-2-1.7q-1.3-0.6-2.9-0.6zm1.1 11.7l2.1-7.9h5.2q1 0 1.7 0.3c0.4 0.3 0.7 0.6 1 0.9q0.3 0.6 0.4 1.4 0.1 0.7-0.1 1.5-0.2 0.7-0.6 1.4-0.4 0.7-1 1.2c-0.4 0.4-0.9 0.7-1.4 0.9-0.5 0.2-1 0.3-1.7 0.3zm-103-7.9h15.6l-3.9 14.5h-15.6l-1 3.8h19.8l6-22.1h-19.9zm10.6 9.2l-3.6-4-5.8 4zm134.8-13h-19.9l-5.9 22h19.8l1.1-3.8h-15.7l3.9-14.5h15.7zm-7.3 13l-3.6-4-5.8 4zm-85-3l0.4-1.4q0.1-0.7 0.5-1.5c0.3-0.5 0.6-1 1-1.5 0.4-0.6 0.9-1 1.5-1.3 0.5-0.3 1.1-0.5 1.8-0.5h12.1l1-3.9h-12.1q-1.6 0.1-3.1 0.7-1.6 0.6-3 1.7-1.4 1.1-2.4 2.7-1 1.6-1.5 3.6l-1.3 4.8c-0.4 1.3-0.5 2.5-0.4 3.5 0.1 1.1 0.4 2 0.9 2.8 0.6 0.7 1.2 1.3 2.2 1.7 0.7 0.4 1.6 0.5 2.7 0.6h12.1l1-3.8h-12.1q-0.9-0.1-1.5-0.5c-0.4-0.4-0.7-0.8-0.8-1.3q-0.2-0.7-0.2-1.5 0.2-0.9 0.3-1.5zm125.3 0.1l0.4-1.5q0.2-0.7 0.5-1.4c0.2-0.6 0.6-1.1 1-1.6 0.4-0.5 0.9-0.9 1.5-1.3q0.8-0.4 1.8-0.5h12l1.1-3.8h-12.1q-1.6 0.1-3.1 0.6-1.6 0.6-3 1.7-1.3 1.2-2.4 2.8c-0.7 1-1.2 2.2-1.5 3.5l-1.3 4.8q-0.5 2-0.4 3.6c0.1 1 0.5 1.9 0.9 2.7q0.8 1.1 2.2 1.7c0.7 0.4 1.6 0.6 2.7 0.7h12.1l1-3.9h-12.1q-1-0.1-1.5-0.5c-0.4-0.3-0.6-0.7-0.8-1.3q-0.2-0.7-0.2-1.5c0.1-0.6 0.2-1 0.3-1.5zm-25.7-0.1l0.4-1.4q0.2-0.7 0.6-1.5c0.2-0.5 0.5-1.1 0.9-1.6 0.4-0.5 1-0.9 1.6-1.2q0.7-0.5 1.7-0.5h12.1l1-3.9h-12.1q-1.6 0.1-3 0.6-1.7 0.6-3.1 1.8-1.3 1.1-2.4 2.7c-0.6 1.1-1.2 2.3-1.5 3.6l-1.3 4.8q-0.5 1.9-0.4 3.5c0.2 1.1 0.5 2 1 2.8q0.8 1.1 2.1 1.7c0.7 0.3 1.7 0.5 2.7 0.6h12.1l1-3.8h-12c-0.7-0.1-1.2-0.3-1.6-0.5-0.4-0.4-0.7-0.8-0.8-1.3q-0.2-0.8-0.1-1.6c0-0.5 0.1-1 0.2-1.4zm-61.8-6.3l-4.9 18.3h4.2l4.9-18.3 1-3.7h-18.9l-1 3.7-4.9 18.3h4.2l4.9-18.3zm-106.5 8.9c0.9 0 1.6-0.7 1.6-1.6 0-0.9-0.7-1.7-1.6-1.7h-119.7c-0.9 0-1.6 0.8-1.6 1.7 0 0.9 0.7 1.6 1.6 1.6zm342.6 0c0.8 0 1.6-0.7 1.6-1.6 0-0.9-0.8-1.7-1.6-1.7h-119.7c-0.9 0-1.7 0.8-1.7 1.7 0 0.9 0.8 1.6 1.7 1.6zm-252.2-154.3q1.6-7.7 3.2-15.4c0 0 2.2-10.4 13.6-10.5h71.3c9.4 0 18.9-5.9 23.8-14.8h-39.9c-0.5 0-0.9 0.1-1.3 0.1v-0.1h-53.8c-22.5 0-30 15-32.1 25.2l-0.2 0.8c-4.3 0.5-8.4 4.2-9.4 8.5l-5.2 23.6c-1.1 4.7 2 8.6 6.7 8.6h54.2c9.5 0 19.1-6.1 23.9-15.1h-60.9c-1.6 0-2.7-1.5-2.4-3.2l0.8-4.6c0.3-1.7 1.9-3.1 3.6-3.1zm60.7 0c9.3 0 18.9-5.9 23.8-14.8-23.2 0-45.4 0-68.5 0l-3.1 14.8zm-83.5 58.3v26.8h-50.3l0.1-26.8-18.7 15.9 0.1 52h18.6v-26h50.2v26h18.7v-67.9zm295.8 0l-0.1 26.8h-50.2l0.1-26.8-18.8 15.9 0.1 52h18.7v-26h50.1l0.1 26h18.6v-67.9zm-500.6 36.1v-20.8c0 0 0.2-13.2 14.6-13.3h37.8l37.7 41.4v24.5h19.4v-24.5l42.1-46.2h-26l-25.8 29.7-25.7-29.7c-4.5 3.1-9.9 4.7-15.5 4.8h-6.2c12-0.1 22.6-7.6 26.4-18.9h-50.8c-0.5 0-1 0.1-1.5 0.1v-0.1h-15.6c-28.6 0-34.3 19.1-34.3 32.1v24.5c0 7.4 2.8 13.9 8.6 19.6 5.9 5.8 13.5 8.6 23.1 8.6h37.7c12 0 22.7-7.7 26.5-19.1h-58.3q-6.1-0.2-10.2-3.5c-2.6-2.3-4-5.4-4-9.2zm295.8 0v-20.8c0 0 0.2-13.2 14.5-13.3h37.8l37.7 41.4v24.5h19.5v-24.5l42.1-46.2h-26l-25.9 29.7-25.6-29.7c-4.5 3.1-9.9 4.7-15.6 4.8h-6.1c11.9-0.1 22.6-7.6 26.4-18.9h-50.8c-0.5 0-1 0.1-1.6 0.1v-0.1h-15.5c-28.6 0-34.4 19.1-34.4 32.1v24.5c0 7.4 2.9 13.9 8.6 19.6 5.9 5.8 13.6 8.6 23.2 8.6h37.7c12 0 22.7-7.7 26.4-19.1h-58.2c-4.1-0.1-7.5-1.3-10.2-3.5-2.6-2.3-4-5.4-4-9.2z"/>
	</g>
</svg>